<?xml version="1.0" standalone="no"?>
<!DOCTYPE svg PUBLIC "-//W3C//DTD SVG 20010904//EN"
 "http://www.w3.org/TR/2001/REC-SVG-20010904/DTD/svg10.dtd">
<svg version="1.0" xmlns="http://www.w3.org/2000/svg"
 width="300.000000pt" height="300.000000pt" viewBox="0 0 300.000000 300.000000"
 preserveAspectRatio="xMidYMid meet">
<metadata>
Created by potrace 1.11, written by Peter Selinger 2001-2013
</metadata>
<g transform="translate(0.000000,300.000000) scale(0.100000,-0.100000)"
fill="#000000" stroke="none">
<path d="M1530 2913 c0 -4 -37 -9 -83 -9 -84 -2 -144 -10 -162 -23 -5 -4 -20
-6 -32 -5 -13 0 -23 -3 -23 -7 0 -5 -9 -9 -20 -9 -11 0 -20 -5 -20 -12 0 -6
-3 -8 -6 -5 -4 4 -34 -8 -68 -26 -60 -31 -73 -40 -101 -64 -7 -7 -17 -13 -22
-13 -5 0 -15 -9 -23 -20 -8 -11 -20 -20 -27 -20 -7 0 -13 -3 -13 -7 0 -5 -23
-33 -50 -63 -27 -30 -50 -61 -50 -67 0 -7 -4 -13 -9 -13 -10 0 -84 -147 -84
-167 0 -7 -5 -13 -10 -13 -5 0 -7 -7 -4 -15 4 -8 2 -17 -4 -21 -6 -3 -8 -12
-5 -20 3 -8 1 -14 -3 -14 -5 0 -8 -16 -7 -35 1 -19 -3 -35 -7 -35 -5 0 -7 -9
-4 -20 3 -11 2 -20 -1 -20 -4 0 -7 -26 -7 -58 0 -31 -2 -61 -5 -67 -4 -10 -11
-62 -14 -102 0 -13 -4 -23 -8 -23 -4 0 -5 -7 -2 -15 4 -8 2 -15 -3 -15 -5 0
-9 -10 -8 -22 6 -65 -73 -199 -175 -298 -70 -68 -73 -70 -158 -135 -28 -21
-52 -43 -52 -48 0 -4 -4 -5 -10 -2 -5 3 -10 3 -10 -2 0 -4 -21 -30 -46 -58
-55 -61 -117 -152 -110 -163 2 -4 1 -14 -4 -22 -8 -13 7 -59 19 -61 3 0 17 -2
30 -5 13 -2 38 5 56 16 17 11 34 17 37 15 3 -3 11 1 18 10 7 8 18 15 25 15 7
0 24 9 39 21 14 11 26 17 26 14 0 -4 6 -2 13 4 15 12 89 40 126 47 14 3 28 7
33 10 10 6 10 6 -1 -34 -5 -17 -7 -32 -3 -32 4 0 7 -15 8 -32 1 -48 11 -109
24 -143 6 -17 11 -32 11 -35 -1 -15 13 -57 23 -69 6 -8 10 -17 10 -20 -2 -8 6
-33 16 -51 5 -8 23 -43 41 -77 17 -35 36 -63 40 -63 5 0 9 -6 9 -14 0 -7 7
-19 15 -26 24 -20 17 -35 -22 -49 -51 -19 -144 -82 -168 -116 -11 -15 -26 -34
-33 -41 -8 -8 -15 -20 -16 -27 -1 -6 -8 -22 -14 -34 -7 -13 -9 -23 -5 -23 4 0
-2 -7 -13 -16 -10 -8 -12 -12 -4 -8 13 7 13 5 1 -9 -7 -9 -11 -23 -8 -31 3 -7
0 -19 -6 -25 -9 -9 -8 -11 6 -5 13 5 16 2 10 -12 -5 -13 -3 -15 7 -9 8 5 11 4
7 -2 -4 -5 3 -19 13 -31 11 -12 20 -26 20 -32 0 -6 4 -8 10 -5 6 3 10 1 10 -4
0 -6 5 -11 11 -11 5 0 7 5 3 12 -4 7 -3 8 4 4 7 -4 22 -9 34 -11 12 -3 25 -10
30 -17 5 -9 8 -7 8 6 0 20 0 20 15 0 10 -12 13 -14 10 -3 -9 24 61 18 80 -7
13 -18 14 -18 9 6 -2 14 -2 19 2 13 4 -9 11 -10 25 -2 15 8 21 6 25 -6 6 -14
8 -13 19 2 13 17 14 17 20 0 7 -17 8 -17 21 0 14 17 14 17 12 -2 -4 -25 28
-27 61 -3 23 17 41 16 41 -3 0 -5 -5 -9 -11 -9 -5 0 -7 5 -3 12 5 7 3 8 -5 3
-9 -5 -9 -11 -3 -17 13 -13 32 -1 32 20 0 13 2 13 15 -4 19 -25 19 -35 0 -28
-8 4 -15 1 -15 -7 0 -7 3 -9 7 -6 3 4 11 2 18 -3 15 -13 16 20 1 39 -9 12 -8
13 7 8 9 -3 17 -3 17 1 0 4 9 8 20 8 11 0 20 -3 20 -7 0 -3 9 -16 20 -29 11
-13 20 -18 20 -12 0 6 -7 17 -15 26 -9 9 -11 17 -5 21 5 3 10 1 10 -5 0 -6 5
-8 10 -5 6 3 19 3 31 0 17 -6 18 -9 7 -23 -12 -15 -11 -16 5 -3 13 10 14 17 7
27 -9 10 -7 11 9 7 12 -3 18 -10 15 -17 -3 -6 1 -3 9 6 8 10 17 15 21 11 10
-11 56 -9 56 2 0 5 4 4 9 -4 6 -9 10 -10 16 -2 5 9 10 9 21 0 11 -9 14 -8 14
2 0 9 3 10 8 4 4 -5 14 -10 22 -10 8 0 15 -9 15 -19 0 -11 6 -21 13 -23 6 -3
12 1 12 7 0 7 7 10 16 6 8 -3 12 -2 9 3 -3 5 -1 12 5 16 5 3 10 13 10 21 0 8
-5 12 -10 9 -6 -4 -8 -11 -5 -16 3 -5 -2 -6 -12 -3 -12 4 -14 3 -6 -3 9 -6 8
-12 -6 -20 -16 -10 -18 -8 -18 13 0 13 3 22 7 19 4 -2 16 2 26 9 13 10 24 11
37 4 14 -7 23 -5 37 7 17 15 19 15 28 -1 9 -17 11 -17 38 1 25 16 27 16 15 2
-8 -10 -11 -20 -7 -24 3 -4 13 2 21 13 8 11 15 14 15 7 0 -7 5 -13 11 -13 6 0
8 8 5 18 -4 10 2 7 13 -8 16 -21 21 -22 26 -9 3 9 12 16 19 16 8 0 12 -6 10
-12 -3 -8 10 -11 41 -10 26 0 49 -3 52 -8 3 -5 9 -3 14 4 7 11 9 11 9 -1 0
-13 1 -13 10 0 5 8 10 10 10 4 0 -12 81 -11 99 1 6 3 12 1 16 -5 6 -10 30 -9
50 1 9 4 63 4 75 -1 15 -6 50 -6 50 0 0 6 9 6 52 1 4 -1 5 -9 2 -18 -3 -10 2
-7 10 7 8 14 15 19 16 11 0 -8 6 -11 18 -6 9 4 27 8 40 10 19 2 21 -1 16 -19
-6 -20 -6 -20 16 2 21 22 23 22 35 5 9 -12 10 -20 3 -24 -7 -4 -7 -9 0 -13 14
-9 22 20 9 33 -14 14 -2 14 26 -1 21 -10 21 -10 7 7 -14 17 -14 18 8 6 12 -6
22 -8 22 -3 0 7 8 8 52 3 4 -1 5 -9 1 -18 -4 -13 -1 -12 11 4 17 23 43 25 57
2 7 -11 9 -10 9 5 0 16 2 17 17 5 12 -10 15 -10 9 -1 -4 7 -4 12 1 11 22 -4
43 2 38 11 -3 6 -2 10 3 10 17 0 22 -13 9 -28 -9 -12 -5 -11 15 2 23 15 26 21
17 42 -5 15 -5 23 0 19 27 -16 12 135 -19 195 -30 60 -108 128 -191 168 l-75
37 33 45 c18 25 33 51 33 58 0 8 5 10 12 6 8 -5 9 -2 5 9 -3 10 -3 17 1 17 7
0 49 85 52 105 1 6 5 15 10 20 9 11 34 96 32 108 -1 4 2 7 6 7 4 0 8 8 9 18 2
43 10 110 15 118 3 5 4 18 2 29 -1 11 2 23 9 27 9 6 8 8 -2 8 -11 0 -11 3 -1
15 10 12 10 15 -1 15 -10 0 -10 3 -2 11 8 8 29 5 77 -12 36 -13 66 -27 66 -31
0 -5 6 -8 14 -8 7 0 45 -18 84 -39 39 -21 73 -36 76 -33 3 3 6 1 6 -5 0 -5 15
-9 33 -9 32 1 58 15 51 28 -2 4 0 9 5 12 12 8 9 22 -17 79 -13 26 -28 47 -34
47 -6 0 -9 3 -5 6 6 6 -24 43 -93 114 -38 39 -72 67 -148 125 -27 20 -151 135
-146 135 3 0 -2 7 -10 16 -41 40 -114 168 -123 214 -7 34 -11 54 -13 60 -1 3
-2 9 -1 14 1 4 -4 14 -10 22 -9 11 -9 14 0 14 7 0 9 5 6 10 -9 14 -17 74 -19
137 0 29 -3 53 -6 53 -3 0 -7 15 -8 33 -2 17 -9 57 -18 87 -8 30 -17 63 -19
73 -2 9 -7 23 -12 30 -4 6 -8 14 -8 17 -2 16 -59 114 -90 156 -67 90 -251 244
-275 229 -4 -3 -11 2 -14 10 -3 8 -9 14 -13 13 -4 -1 -18 3 -30 10 -13 7 -23
10 -23 6 0 -3 -6 -2 -12 4 -7 5 -24 12 -38 14 -14 1 -28 7 -31 11 -3 4 -27 9
-52 10 -26 1 -47 5 -47 9 0 4 -13 6 -29 6 -15 -1 -33 2 -40 6 -6 4 -11 4 -11
-1z m0 -2693 c0 -5 -5 -10 -11 -10 -5 0 -7 5 -4 10 3 6 8 10 11 10 2 0 4 -4 4
-10z m-100 -20 c0 -5 -4 -10 -10 -10 -5 0 -10 5 -10 10 0 6 5 10 10 10 6 0 10
-4 10 -10z m65 0 c3 -5 2 -10 -4 -10 -5 0 -13 5 -16 10 -3 6 -2 10 4 10 5 0
13 -4 16 -10z m108 -7 c-3 -7 -6 -13 -8 -13 -2 0 -5 6 -8 13 -3 8 1 14 8 14 7
0 11 -6 8 -14z m971 2 c3 -8 1 -15 -4 -15 -6 0 -10 7 -10 15 0 8 2 15 4 15 2
0 6 -7 10 -15z m-1706 -37 c-2 -6 -14 -12 -26 -13 -11 -1 -19 2 -16 7 4 5 12
7 20 4 8 -3 14 -1 14 4 0 6 3 10 6 10 3 0 4 -5 2 -12z"/>
<path d="M2610 278 c0 -4 4 -8 9 -8 6 0 12 4 15 8 3 5 -1 9 -9 9 -8 0 -15 -4
-15 -9z"/>
<path d="M2635 259 c-4 -6 -5 -12 -2 -15 2 -3 7 2 10 11 7 17 1 20 -8 4z"/>
<path d="M2670 255 c5 -7 6 -16 2 -21 -4 -5 -3 -5 2 -1 15 12 15 34 0 34 -9 0
-11 -4 -4 -12z"/>
<path d="M2601 244 c0 -11 3 -14 6 -6 3 7 2 16 -1 19 -3 4 -6 -2 -5 -13z"/>
<path d="M316 242 c-3 -5 1 -9 9 -9 8 0 12 4 9 9 -3 4 -7 8 -9 8 -2 0 -6 -4
-9 -8z"/>
<path d="M390 239 c0 -5 5 -7 10 -4 6 3 10 8 10 11 0 2 -4 4 -10 4 -5 0 -10
-5 -10 -11z"/>
<path d="M2696 233 c-6 -14 -5 -15 5 -6 7 7 10 15 7 18 -3 3 -9 -2 -12 -12z"/>
<path d="M373 212 c0 -12 5 -22 9 -22 11 0 10 12 -2 30 -7 12 -9 10 -7 -8z"/>
<path d="M415 220 c3 -5 11 -10 16 -10 6 0 7 5 4 10 -3 6 -11 10 -16 10 -6 0
-7 -4 -4 -10z"/>
<path d="M2615 221 c-3 -6 -11 -9 -16 -6 -5 3 -6 -1 -3 -9 3 -9 10 -16 16 -16
5 0 7 4 4 9 -4 5 0 11 6 14 7 2 10 7 7 11 -4 4 -10 2 -14 -3z"/>
<path d="M2652 211 c-11 -7 -11 -9 0 -14 9 -3 15 1 15 9 0 8 -1 14 -1 14 -1 0
-7 -4 -14 -9z"/>
<path d="M437 189 c7 -7 15 -10 18 -7 3 3 -2 9 -12 12 -14 6 -15 5 -6 -5z"/>
<path d="M1435 170 c-12 -14 -21 -17 -25 -9 -5 7 -10 5 -14 -7 -8 -22 1 -31
16 -16 19 19 32 14 17 -5 -13 -17 -13 -17 7 0 11 9 24 14 27 11 4 -4 -1 -12
-9 -19 -15 -11 -15 -12 0 -12 9 0 16 3 16 6 0 4 9 12 21 19 19 12 20 11 15
-10 -3 -13 -3 -17 0 -10 3 6 9 10 14 7 5 -3 16 2 25 11 9 9 19 13 23 10 4 -4
-4 -17 -18 -28 l-25 -20 35 20 c19 11 41 17 48 15 6 -3 12 0 12 7 0 6 5 8 10
5 8 -5 7 -12 -2 -22 -12 -15 -11 -15 10 -2 12 8 22 17 22 21 0 4 7 5 15 2 8
-4 15 -2 15 4 0 5 -14 8 -30 7 -17 -1 -33 2 -36 7 -3 5 -11 4 -19 -2 -7 -6
-16 -7 -19 -2 -6 10 -36 9 -54 -2 -7 -4 -19 -3 -26 3 -7 6 -16 7 -20 3 -4 -4
-13 1 -20 10 -12 17 -14 17 -31 -2z m55 -24 c-7 -7 -13 -7 -20 0 -6 6 -3 10
10 10 13 0 16 -4 10 -10z m60 10 c0 -2 -8 -10 -17 -17 -16 -13 -17 -12 -4 4
13 16 21 21 21 13z"/>
<path d="M2633 170 c1 -21 10 -18 13 5 1 8 -2 15 -6 15 -5 0 -8 -9 -7 -20z"/>
<path d="M2670 176 c0 -2 8 -10 18 -17 15 -13 16 -12 3 4 -13 16 -21 21 -21
13z"/>
<path d="M2590 161 c0 -6 4 -13 10 -16 6 -3 7 1 4 9 -7 18 -14 21 -14 7z"/>
<path d="M1245 150 c-4 -6 -11 -7 -17 -4 -7 4 -7 0 1 -13 6 -13 7 -24 1 -31
-7 -9 -7 -9 2 -2 17 14 31 12 22 -2 -4 -7 -3 -10 1 -5 13 12 16 47 4 47 -5 0
-7 5 -4 10 3 6 4 10 1 10 -3 0 -8 -5 -11 -10z m10 -20 c3 -5 1 -10 -4 -10 -6
0 -11 5 -11 10 0 6 2 10 4 10 3 0 8 -4 11 -10z"/>
<path d="M1705 149 c-10 -15 3 -25 16 -12 7 7 7 13 1 17 -6 3 -14 1 -17 -5z"/>
<path d="M1870 150 c0 -5 5 -10 11 -10 5 0 7 5 4 10 -3 6 -8 10 -11 10 -2 0
-4 -4 -4 -10z"/>
<path d="M1934 148 c-3 -4 0 -16 6 -25 9 -15 10 -14 4 7 -6 21 -5 23 8 12 13
-10 17 -10 21 1 5 14 -31 19 -39 5z"/>
<path d="M2078 153 c-9 -2 -19 -11 -22 -19 -4 -11 -1 -11 19 2 14 9 25 18 25
20 0 2 -1 3 -2 3 -2 -1 -10 -3 -20 -6z"/>
<path d="M2164 144 c-18 -14 -18 -15 4 -4 12 6 22 13 22 15 0 8 -5 6 -26 -11z"/>
<path d="M480 140 c-9 -6 -10 -10 -3 -10 6 0 15 5 18 10 8 12 4 12 -15 0z"/>
<path d="M650 139 c0 -5 5 -7 10 -4 6 3 10 8 10 11 0 2 -4 4 -10 4 -5 0 -10
-5 -10 -11z"/>
<path d="M980 140 c0 -5 7 -7 15 -4 8 4 15 8 15 10 0 2 -7 4 -15 4 -8 0 -15
-4 -15 -10z"/>
<path d="M1066 138 c3 -5 10 -6 15 -3 13 9 11 12 -6 12 -8 0 -12 -4 -9 -9z"/>
<path d="M1150 140 c0 -6 5 -8 10 -5 6 3 10 -3 10 -14 0 -11 4 -22 9 -25 4 -3
6 6 3 20 -4 25 -3 25 19 14 17 -9 21 -9 13 -1 -15 16 -64 24 -64 11z"/>
<path d="M1284 129 c0 -13 3 -15 13 -7 7 6 13 14 13 18 0 3 -6 7 -13 7 -7 0
-13 -8 -13 -18z"/>
<path d="M1723 123 c-12 -13 -18 -23 -13 -23 5 0 12 5 15 10 4 6 12 7 18 4 7
-4 9 -4 5 1 -4 4 0 13 8 20 13 9 13 12 3 11 -8 0 -24 -11 -36 -23z"/>
<path d="M1776 134 c-8 -21 -8 -24 5 -24 5 0 7 5 4 10 -3 6 3 10 15 10 12 0
19 -4 16 -8 -2 -4 5 -8 18 -8 15 0 22 6 23 21 2 18 1 19 -8 2 -7 -12 -15 -15
-22 -9 -24 18 -45 21 -51 6z"/>
<path d="M1980 130 c-9 -17 -9 -25 0 -34 8 -8 9 -6 4 9 -7 18 -6 19 12 5 18
-14 18 -14 5 3 -8 9 -11 21 -7 24 4 4 12 1 17 -7 9 -13 10 -13 7 -1 -7 24 -26
24 -38 1z"/>
<path d="M2030 139 c0 -5 5 -7 10 -4 6 3 10 8 10 11 0 2 -4 4 -10 4 -5 0 -10
-5 -10 -11z"/>
<path d="M2227 125 c-11 -15 -13 -26 -7 -30 6 -4 9 -1 8 7 -2 7 2 12 7 11 6
-1 12 7 12 18 2 24 2 24 -20 -6z"/>
<path d="M2350 143 c0 -6 8 -17 18 -24 16 -13 16 -13 2 6 -8 11 -16 22 -17 24
-2 2 -3 0 -3 -6z"/>
<path d="M2416 141 c-4 -5 3 -7 14 -4 23 6 26 13 6 13 -8 0 -17 -4 -20 -9z"/>
<path d="M1900 130 c-9 -6 -10 -10 -3 -10 6 0 15 5 18 10 8 12 4 12 -15 0z"/>
<path d="M2126 123 c-6 -14 -5 -15 5 -6 7 7 10 15 7 18 -3 3 -9 -2 -12 -12z"/>
<path d="M2180 130 c-12 -7 -12 -11 -2 -20 6 -5 10 -7 7 -4 -3 4 0 13 6 21 13
15 10 16 -11 3z"/>
<path d="M2490 137 c0 -2 6 -10 14 -16 11 -9 16 -9 22 1 4 7 4 10 -1 6 -4 -4
-14 -3 -22 3 -7 6 -13 9 -13 6z"/>
<path d="M606 118 c3 -5 10 -6 15 -3 13 9 11 12 -6 12 -8 0 -12 -4 -9 -9z"/>
<path d="M730 119 c0 -5 5 -7 10 -4 6 3 10 8 10 11 0 2 -4 4 -10 4 -5 0 -10
-5 -10 -11z"/>
<path d="M866 122 c-2 -4 4 -8 14 -8 10 0 16 4 14 8 -3 4 -9 8 -14 8 -5 0 -11
-4 -14 -8z"/>
<path d="M1120 122 c0 -5 7 -9 15 -9 8 0 12 4 9 9 -7 10 -24 10 -24 0z"/>
<path d="M1660 120 c-12 -7 -10 -9 8 -7 12 0 22 5 22 9 0 11 -12 10 -30 -2z"/>
<path d="M1870 121 c0 -10 19 -25 25 -20 1 2 -3 10 -11 17 -8 7 -14 8 -14 3z"/>
<path d="M2075 121 c-4 -7 0 -8 11 -4 11 4 15 3 10 -5 -3 -6 -2 -13 3 -16 5
-4 8 2 7 11 -3 20 -21 28 -31 14z"/>
<path d="M2296 113 c-6 -14 -5 -15 5 -6 7 7 10 15 7 18 -3 3 -9 -2 -12 -12z"/>
<path d="M2436 118 c3 -5 10 -6 15 -3 13 9 11 12 -6 12 -8 0 -12 -4 -9 -9z"/>
<path d="M1590 109 c0 -5 5 -7 10 -4 6 3 10 8 10 11 0 2 -4 4 -10 4 -5 0 -10
-5 -10 -11z"/>
<path d="M1095 100 c3 -5 8 -10 11 -10 2 0 4 5 4 10 0 6 -5 10 -11 10 -5 0 -7
-4 -4 -10z"/>
<path d="M1300 106 c0 -2 8 -10 18 -17 15 -13 16 -12 3 4 -13 16 -21 21 -21
13z"/>
<path d="M1351 87 c-13 -21 -12 -21 5 -5 10 10 16 20 13 22 -3 3 -11 -5 -18
-17z"/>
<path d="M1420 106 c0 -2 8 -10 18 -17 15 -13 16 -12 3 4 -13 16 -21 21 -21
13z"/>
<path d="M1487 99 c7 -7 15 -10 18 -7 3 3 -2 9 -12 12 -14 6 -15 5 -6 -5z"/>
<path d="M1655 91 c-3 -5 -2 -12 3 -15 5 -3 9 1 9 9 0 17 -3 19 -12 6z"/>
<path d="M1856 87 c3 -10 9 -15 12 -12 3 3 0 11 -7 18 -10 9 -11 8 -5 -6z"/>
</g>
</svg>
